<svg xmlns="http://www.w3.org/2000/svg" version="1.1" viewBox="0 0 751 841" width="751.00" height="841.00">
<path fill="#a6d630" fill-opacity="0.992" d="&#10;  M 393.23 0.00&#10;  Q 400.35 1.43 407.68 1.06&#10;  A 5.27 5.08 -39.7 0 1 409.04 1.16&#10;  Q 411.56 1.68 417.21 2.24&#10;  C 467.62 7.23 516.90 22.70 561.10 47.36&#10;  Q 596.00 66.83 626.01 93.18&#10;  A 2.82 2.81 -69.5 0 1 626.97 95.30&#10;  L 626.97 126.45&#10;  A 0.35 0.35 0.0 0 1 626.49 126.77&#10;  Q 624.96 126.14 624.29 125.47&#10;  C 565.81 67.42 487.97 32.85 405.87 27.23&#10;  Q 398.02 26.69 397.24 26.58&#10;  Q 393.12 25.98 388.63 25.99&#10;  Q 373.43 26.01 363.76 25.98&#10;  C 358.14 25.96 352.52 27.11 346.75 27.01&#10;  Q 341.90 26.92 339.35 27.72&#10;  Q 339.33 27.72 331.94 28.45&#10;  Q 315.25 30.09 292.07 35.12&#10;  C 237.55 46.94 185.73 73.88 143.64 110.55&#10;  Q 136.74 116.56 127.31 125.90&#10;  Q 116.81 136.32 111.74 141.98&#10;  C 97.74 157.63 85.18 174.17 74.39 191.96&#10;  Q 32.92 260.31 25.96 341.00&#10;  Q 25.56 345.66 25.28 347.48&#10;  A 5.46 0.48 -78.9 0 0 25.00 350.08&#10;  Q 24.89 361.80 24.96 389.29&#10;  Q 24.96 392.50 25.56 396.68&#10;  Q 25.78 398.22 26.20 404.07&#10;  Q 26.86 413.45 29.47 429.30&#10;  C 29.88 431.80 30.87 435.35 31.11 438.50&#10;  C 31.39 442.01 28.70 441.61 26.96 442.45&#10;  Q 19.13 446.24 11.56 451.69&#10;  A 1.35 1.34 -23.9 0 1 9.46 450.88&#10;  Q 5.80 433.99 3.39 415.91&#10;  C 3.03 413.19 3.23 410.38 2.68 408.35&#10;  C 1.69 404.67 2.44 401.18 1.56 397.49&#10;  Q 1.06 395.38 1.12 392.22&#10;  Q 1.24 384.93 0.00 377.78&#10;  L 0.00 359.52&#10;  Q 1.26 350.65 1.10 341.68&#10;  A 7.76 7.74 -38.6 0 1 1.33 339.65&#10;  Q 2.17 336.32 2.09 333.03&#10;  Q 2.02 329.84 2.66 328.03&#10;  C 3.29 326.24 3.00 323.77 3.31 321.31&#10;  Q 11.50 255.00 43.98 195.73&#10;  Q 55.07 175.50 66.35 159.61&#10;  Q 121.74 81.60 206.41 38.93&#10;  Q 256.67 13.61 317.38 4.22&#10;  Q 318.41 4.06 320.13 3.99&#10;  C 321.91 3.92 323.37 3.03 324.98 3.09&#10;  Q 327.63 3.17 329.78 2.62&#10;  C 334.02 1.54 337.70 2.41 342.04 1.27&#10;  A 1.47 1.23 -50.1 0 1 342.32 1.22&#10;  L 358.13 0.00&#10;  L 393.23 0.00&#10;  Z"/>
<path fill="#a6d630" fill-opacity="0.992" d="&#10;  M 45.45 530.47&#10;  L 47.06 531.08&#10;  A 1.51 1.49 -34.1 0 0 47.60 531.18&#10;  L 62.42 531.04&#10;  A 0.87 0.85 34.5 0 0 62.71 530.99&#10;  Q 65.91 529.99 69.29 529.99&#10;  A 2.50 2.39 -53.9 0 0 70.13 529.84&#10;  L 79.71 526.27&#10;  A 2.59 2.45 -53.7 0 1 80.59 526.11&#10;  Q 95.18 526.03 108.50 526.10&#10;  Q 113.04 526.13 117.47 526.49&#10;  C 125.17 527.13 132.99 527.01 138.58 527.12&#10;  Q 139.52 527.14 141.49 528.25&#10;  A 4.02 3.78 80.5 0 1 142.33 528.89&#10;  C 151.55 538.29 164.56 539.06 177.36 538.08&#10;  C 185.53 537.45 190.45 533.24 196.67 528.65&#10;  A 2.83 2.82 -63.2 0 1 198.30 528.11&#10;  Q 209.45 528.04 211.89 528.02&#10;  C 216.09 527.98 219.91 527.01 223.99 527.09&#10;  C 232.54 527.24 241.74 526.62 249.32 526.65&#10;  C 260.37 526.69 267.31 526.91 275.22 526.60&#10;  C 289.49 526.04 304.80 526.92 320.26 526.91&#10;  Q 339.92 526.91 361.11 526.91&#10;  A 1.93 1.93 0.0 0 0 363.04 524.98&#10;  L 363.04 481.40&#10;  A 4.10 4.08 -19.3 0 1 364.59 478.20&#10;  Q 383.97 462.95 400.85 449.36&#10;  Q 401.48 448.85 403.77 448.93&#10;  A 1.80 1.78 61.8 0 1 404.71 449.22&#10;  Q 407.66 451.07 410.23 453.61&#10;  Q 410.40 453.78 410.72 453.92&#10;  Q 411.02 454.05 411.23 454.22&#10;  Q 422.88 463.60 430.81 470.20&#10;  Q 437.85 476.06 438.31 476.22&#10;  A 1.35 1.33 -3.4 0 1 439.05 476.87&#10;  Q 439.46 477.68 441.09 478.90&#10;  A 1.23 1.23 0.0 0 0 443.06 477.92&#10;  Q 443.06 422.18 443.03 420.34&#10;  C 442.96 416.29 443.44 414.32 446.73 412.38&#10;  A 8.52 8.24 9.1 0 0 447.79 411.64&#10;  Q 450.34 409.53 482.32 383.36&#10;  Q 483.67 382.25 486.25 383.30&#10;  Q 487.14 383.65 491.20 387.08&#10;  Q 505.19 398.90 518.58 410.44&#10;  Q 521.39 412.86 524.39 416.12&#10;  A 2.00 1.91 -74.2 0 1 524.85 416.99&#10;  Q 525.39 419.34 525.39 420.00&#10;  Q 525.38 476.24 525.48 499.00&#10;  Q 525.56 516.87 525.77 522.91&#10;  A 1.43 1.40 59.2 0 1 525.58 523.69&#10;  Q 524.79 525.09 526.16 526.64&#10;  A 1.10 1.10 0.0 0 0 526.99 527.02&#10;  L 564.40 527.02&#10;  A 1.67 1.66 90.0 0 0 566.06 525.35&#10;  L 566.06 239.05&#10;  A 3.07 2.99 -36.7 0 1 566.21 238.11&#10;  C 567.36 234.64 567.84 232.95 571.23 231.17&#10;  Q 587.83 222.46 607.16 214.29&#10;  A 3.32 3.14 -59.2 0 1 607.90 214.08&#10;  Q 610.79 213.63 612.68 211.90&#10;  A 1.42 1.40 -22.0 0 0 613.14 210.84&#10;  Q 613.01 199.70 613.05 167.49&#10;  Q 613.06 164.98 615.27 163.56&#10;  Q 616.37 162.86 621.91 159.34&#10;  Q 630.11 154.14 638.53 149.17&#10;  A 3.11 3.10 74.8 0 0 640.06 146.49&#10;  L 640.06 73.49&#10;  A 1.84 1.80 -29.8 0 1 640.33 72.54&#10;  Q 643.60 67.32 649.23 69.90&#10;  A 1.91 1.85 -4.3 0 1 649.95 70.50&#10;  Q 651.92 73.22 651.92 76.00&#10;  Q 651.96 107.89 651.90 147.63&#10;  A 1.65 1.64 -71.4 0 0 652.56 148.97&#10;  Q 654.42 150.38 657.01 151.98&#10;  Q 671.73 161.07 676.51 164.47&#10;  C 678.14 165.62 677.99 167.23 677.99 169.11&#10;  Q 677.98 202.69 677.98 210.23&#10;  A 1.43 1.41 -67.0 0 0 678.37 211.21&#10;  Q 679.29 212.17 681.30 212.94&#10;  C 684.95 214.34 688.65 215.81 692.65 217.72&#10;  Q 706.20 224.21 723.42 233.35&#10;  Q 724.97 234.17 726.43 236.34&#10;  A 2.40 2.28 -68.7 0 1 726.78 237.20&#10;  Q 727.65 241.68 727.66 243.00&#10;  Q 727.83 276.57 727.78 484.51&#10;  Q 727.78 491.52 726.22 495.44&#10;  Q 725.91 496.21 721.68 505.55&#10;  Q 694.17 566.30 643.65 615.91&#10;  Q 627.76 631.51 616.60 640.60&#10;  Q 566.43 681.46 506.79 703.28&#10;  Q 500.79 705.48 500.29 705.70&#10;  A 3.02 2.97 -60.7 0 1 499.50 705.93&#10;  C 497.00 706.30 495.14 707.64 492.73 708.05&#10;  Q 491.18 708.32 489.00 709.42&#10;  A 5.10 5.02 28.2 0 1 487.33 709.91&#10;  Q 484.74 710.17 481.65 711.62&#10;  A 3.44 3.27 28.0 0 1 480.57 711.92&#10;  Q 477.71 712.21 474.26 713.66&#10;  A 3.04 3.00 -57.9 0 1 473.24 713.90&#10;  Q 469.95 714.06 466.56 715.56&#10;  A 4.08 4.00 -59.0 0 1 465.29 715.89&#10;  Q 461.93 716.20 458.46 717.63&#10;  A 3.24 3.18 -57.5 0 1 457.38 717.88&#10;  Q 452.91 718.20 448.53 719.74&#10;  A 1.37 0.92 -30.5 0 1 448.35 719.79&#10;  L 422.91 723.81&#10;  A 9.70 5.93 -9.4 0 1 421.55 723.95&#10;  C 417.22 723.68 413.24 724.92 408.74 724.86&#10;  C 405.22 724.81 402.70 725.85 399.41 725.89&#10;  Q 378.43 726.15 357.56 725.94&#10;  Q 353.96 725.90 350.98 725.35&#10;  C 346.75 724.55 342.27 725.22 338.16 724.34&#10;  Q 335.81 723.83 332.78 723.91&#10;  A 6.82 6.66 50.3 0 1 330.96 723.72&#10;  C 326.77 722.68 320.05 722.19 315.00 721.30&#10;  Q 310.13 720.44 308.66 720.24&#10;  Q 304.91 719.72 303.12 719.21&#10;  C 299.17 718.09 296.34 718.02 292.27 716.91&#10;  Q 289.32 716.11 286.95 715.79&#10;  A 5.84 5.59 56.6 0 1 285.85 715.54&#10;  C 281.81 714.20 279.03 713.84 275.07 712.72&#10;  Q 257.70 707.80 245.86 703.39&#10;  Q 226.65 696.22 208.18 687.34&#10;  Q 197.11 682.02 181.93 673.10&#10;  Q 131.49 643.46 92.53 599.43&#10;  C 74.80 579.41 59.33 558.41 46.14 535.13&#10;  Q 45.01 533.13 44.41 531.49&#10;  A 0.80 0.80 0.0 0 1 45.45 530.47&#10;  Z&#10;  M 651.86 200.84&#10;  L 647.33 199.10&#10;  A 1.30 1.28 -51.1 0 0 646.17 199.23&#10;  C 644.90 200.07 643.39 199.85 642.05 201.00&#10;  C 640.74 202.14 639.14 201.64 638.14 202.84&#10;  Q 637.38 203.75 634.88 204.72&#10;  A 0.45 0.45 0.0 0 0 634.88 205.56&#10;  L 635.35 205.74&#10;  A 2.01 2.00 44.1 0 0 636.82 205.72&#10;  Q 639.94 204.45 640.49 204.26&#10;  C 641.47 203.92 643.05 204.17 643.67 203.80&#10;  Q 644.82 203.12 645.95 203.07&#10;  Q 647.77 202.99 651.80 201.96&#10;  A 0.59 0.59 0.0 0 0 651.86 200.84&#10;  Z&#10;  M 645.08 546.01&#10;  L 647.88 546.01&#10;  A 1.23 1.23 0.0 0 0 649.11 544.78&#10;  L 649.11 233.38&#10;  A 2.67 2.50 -90.0 0 0 646.61 230.71&#10;  L 646.35 230.71&#10;  A 2.67 2.50 90.0 0 0 643.85 233.38&#10;  L 643.85 544.78&#10;  A 1.23 1.23 0.0 0 0 645.08 546.01&#10;  Z&#10;  M 624.31 268.68&#10;  A 1.18 1.18 0.0 0 0 625.08 267.57&#10;  L 625.08 245.41&#10;  A 1.18 1.18 0.0 0 0 623.49 244.30&#10;  L 614.74 247.56&#10;  A 1.18 1.18 0.0 0 0 613.97 248.67&#10;  L 613.97 270.83&#10;  A 1.18 1.18 0.0 0 0 615.56 271.94&#10;  L 624.31 268.68&#10;  Z&#10;  M 677.10 272.84&#10;  A 1.53 1.53 0.0 0 0 679.09 271.38&#10;  L 679.09 250.35&#10;  A 1.53 1.53 0.0 0 0 678.02 248.89&#10;  L 669.35 246.16&#10;  A 1.53 1.53 0.0 0 0 667.36 247.62&#10;  L 667.36 268.65&#10;  A 1.53 1.53 0.0 0 0 668.43 270.11&#10;  L 677.10 272.84&#10;  Z&#10;  M 596.14 278.65&#10;  A 1.58 1.58 0.0 0 0 597.05 277.22&#10;  L 597.05 257.17&#10;  A 1.58 1.58 0.0 0 0 594.80 255.73&#10;  L 586.88 259.42&#10;  A 1.58 1.58 0.0 0 0 585.97 260.85&#10;  L 585.97 280.90&#10;  A 1.58 1.58 0.0 0 0 588.22 282.34&#10;  L 596.14 278.65&#10;  Z&#10;  M 705.43 283.39&#10;  A 1.21 1.21 0.0 0 0 707.07 282.26&#10;  L 707.07 261.84&#10;  A 1.21 1.21 0.0 0 0 706.29 260.71&#10;  L 697.63 257.39&#10;  A 1.21 1.21 0.0 0 0 695.99 258.52&#10;  L 695.99 278.94&#10;  A 1.21 1.21 0.0 0 0 696.77 280.07&#10;  L 705.43 283.39&#10;  Z&#10;  M 624.06 320.95&#10;  A 1.21 1.21 0.0 0 0 625.08 319.76&#10;  L 625.08 297.10&#10;  A 1.21 1.21 0.0 0 0 623.45 295.97&#10;  L 614.78 299.20&#10;  A 1.21 1.21 0.0 0 0 613.99 300.33&#10;  L 613.99 321.12&#10;  A 1.21 1.21 0.0 0 0 615.39 322.32&#10;  L 624.06 320.95&#10;  Z&#10;  M 676.84 323.53&#10;  A 1.69 1.69 0.0 0 0 679.04 321.91&#10;  L 679.04 301.62&#10;  A 1.69 1.69 0.0 0 0 677.86 300.01&#10;  L 669.40 297.34&#10;  A 1.69 1.69 0.0 0 0 667.20 298.95&#10;  L 667.20 319.24&#10;  A 1.69 1.69 0.0 0 0 668.38 320.85&#10;  L 676.84 323.53&#10;  Z&#10;  M 596.10 329.18&#10;  A 1.46 1.46 0.0 0 0 597.05 327.82&#10;  L 597.05 306.92&#10;  A 1.46 1.46 0.0 0 0 595.08 305.55&#10;  L 586.94 308.59&#10;  A 1.46 1.46 0.0 0 0 585.99 309.95&#10;  L 585.99 330.85&#10;  A 1.46 1.46 0.0 0 0 587.96 332.22&#10;  L 596.10 329.18&#10;  Z&#10;  M 697.65 306.67&#10;  A 1.36 1.36 0.0 0 0 695.99 308.00&#10;  L 695.99 328.46&#10;  A 1.36 1.36 0.0 0 0 696.94 329.76&#10;  L 705.32 332.40&#10;  A 1.36 1.36 0.0 0 0 707.09 331.11&#10;  L 707.09 309.87&#10;  A 1.36 1.36 0.0 0 0 706.03 308.54&#10;  L 697.65 306.67&#10;  Z&#10;  M 623.85 373.11&#10;  A 1.45 1.45 0.0 0 0 625.07 371.68&#10;  L 625.07 349.31&#10;  A 1.45 1.45 0.0 0 0 623.39 347.87&#10;  L 615.21 349.17&#10;  A 1.45 1.45 0.0 0 0 613.99 350.60&#10;  L 613.99 372.97&#10;  A 1.45 1.45 0.0 0 0 615.67 374.41&#10;  L 623.85 373.11&#10;  Z&#10;  M 677.16 374.63&#10;  A 1.55 1.55 0.0 0 0 679.05 373.11&#10;  L 679.05 352.08&#10;  A 1.55 1.55 0.0 0 0 677.84 350.57&#10;  L 669.05 348.60&#10;  A 1.55 1.55 0.0 0 0 667.16 350.12&#10;  L 667.16 371.15&#10;  A 1.55 1.55 0.0 0 0 668.37 372.66&#10;  L 677.16 374.63&#10;  Z&#10;  M 595.90 380.06&#10;  A 1.55 1.55 0.0 0 0 597.06 378.56&#10;  L 597.06 356.56&#10;  A 1.55 1.55 0.0 0 0 595.12 355.06&#10;  L 587.14 357.15&#10;  A 1.55 1.55 0.0 0 0 585.98 358.65&#10;  L 585.98 380.66&#10;  A 1.55 1.55 0.0 0 0 587.92 382.16&#10;  L 595.90 380.06&#10;  Z&#10;  M 697.63 356.87&#10;  A 1.34 1.34 0.0 0 0 696.00 358.17&#10;  L 696.00 379.16&#10;  A 1.34 1.34 0.0 0 0 697.05 380.46&#10;  L 705.45 382.34&#10;  A 1.34 1.34 0.0 0 0 707.08 381.03&#10;  L 707.08 360.05&#10;  A 1.34 1.34 0.0 0 0 706.03 358.75&#10;  L 697.63 356.87&#10;  Z&#10;  M 614.99 401.20&#10;  A 1.18 1.18 0.0 0 0 613.99 402.37&#10;  L 613.99 424.75&#10;  A 1.18 1.18 0.0 0 0 615.35 425.91&#10;  L 624.08 424.54&#10;  A 1.18 1.18 0.0 0 0 625.08 423.37&#10;  L 625.08 400.99&#10;  A 1.18 1.18 0.0 0 0 623.72 399.83&#10;  L 614.99 401.20&#10;  Z&#10;  M 677.07 425.02&#10;  A 1.73 1.73 0.0 0 0 679.08 423.31&#10;  L 679.08 403.05&#10;  A 1.73 1.73 0.0 0 0 677.63 401.34&#10;  L 669.24 399.99&#10;  A 1.73 1.73 0.0 0 0 667.23 401.69&#10;  L 667.23 421.96&#10;  A 1.73 1.73 0.0 0 0 668.68 423.66&#10;  L 677.07 425.02&#10;  Z&#10;  M 595.84 428.94&#10;  A 1.45 1.45 0.0 0 0 597.06 427.51&#10;  L 597.06 407.08&#10;  A 1.45 1.45 0.0 0 0 595.38 405.64&#10;  L 587.20 406.94&#10;  A 1.45 1.45 0.0 0 0 585.98 408.37&#10;  L 585.98 428.80&#10;  A 1.45 1.45 0.0 0 0 587.66 430.24&#10;  L 595.84 428.94&#10;  Z&#10;  M 697.68 406.09&#10;  A 1.36 1.36 0.0 0 0 696.02 407.42&#10;  L 696.02 428.72&#10;  A 1.36 1.36 0.0 0 0 697.08 430.05&#10;  L 705.49 431.93&#10;  A 1.36 1.36 0.0 0 0 707.15 430.60&#10;  L 707.15 409.30&#10;  A 1.36 1.36 0.0 0 0 706.09 407.97&#10;  L 697.68 406.09&#10;  Z&#10;  M 474.79 452.07&#10;  A 1.26 1.26 0.0 0 0 476.05 450.81&#10;  L 476.05 431.38&#10;  A 1.26 1.26 0.0 0 0 474.79 430.12&#10;  L 465.34 430.12&#10;  A 1.26 1.26 0.0 0 0 464.08 431.38&#10;  L 464.08 450.81&#10;  A 1.26 1.26 0.0 0 0 465.34 452.07&#10;  L 474.79 452.07&#10;  Z&#10;  M 504.2773 431.1699&#10;  A 1.06 1.06 0.0 0 0 503.2192 430.1080&#10;  L 494.0392 430.0920&#10;  A 1.06 1.06 0.0 0 0 492.9773 431.1502&#10;  L 492.9427 451.0101&#10;  A 1.06 1.06 0.0 0 0 494.0008 452.0720&#10;  L 503.1808 452.0880&#10;  A 1.06 1.06 0.0 0 0 504.2427 451.0298&#10;  L 504.2773 431.1699&#10;  Z&#10;  M 625.0602 452.6503&#10;  A 1.69 1.69 0.0 0 0 623.3672 450.9633&#10;  L 615.6472 450.9768&#10;  A 1.69 1.69 0.0 0 0 613.9602 452.6697&#10;  L 613.9998 475.3897&#10;  A 1.69 1.69 0.0 0 0 615.6928 477.0767&#10;  L 623.4128 477.0632&#10;  A 1.69 1.69 0.0 0 0 625.0998 475.3703&#10;  L 625.0602 452.6503&#10;  Z&#10;  M 677.38 476.11&#10;  A 1.66 1.66 0.0 0 0 679.04 474.45&#10;  L 679.04 454.35&#10;  A 1.66 1.66 0.0 0 0 677.64 452.71&#10;  L 669.08 451.33&#10;  A 1.66 1.66 0.0 0 0 667.16 452.97&#10;  L 667.16 474.45&#10;  A 1.66 1.66 0.0 0 0 668.82 476.11&#10;  L 677.38 476.11&#10;  Z&#10;  M 697.68 455.81&#10;  A 1.45 1.45 0.0 0 0 696.00 457.24&#10;  L 696.00 478.19&#10;  A 1.45 1.45 0.0 0 0 697.22 479.62&#10;  L 705.41 480.95&#10;  A 1.45 1.45 0.0 0 0 707.09 479.52&#10;  L 707.09 458.56&#10;  A 1.45 1.45 0.0 0 0 705.87 457.13&#10;  L 697.68 455.81&#10;  Z&#10;  M 474.88 490.04&#10;  A 1.17 1.17 0.0 0 0 476.05 488.87&#10;  L 476.05 469.75&#10;  A 1.17 1.17 0.0 0 0 474.81 468.58&#10;  L 465.20 469.15&#10;  A 1.17 1.17 0.0 0 0 464.10 470.31&#10;  L 464.10 488.87&#10;  A 1.17 1.17 0.0 0 0 465.27 490.04&#10;  L 474.88 490.04&#10;  Z&#10;  M 504.18 469.73&#10;  A 0.88 0.88 0.0 0 0 503.30 468.85&#10;  L 493.84 468.85&#10;  A 0.88 0.88 0.0 0 0 492.96 469.73&#10;  L 492.96 489.17&#10;  A 0.88 0.88 0.0 0 0 493.84 490.05&#10;  L 503.30 490.05&#10;  A 0.88 0.88 0.0 0 0 504.18 489.17&#10;  L 504.18 469.73&#10;  Z&#10;  M 397.0337 495.3786&#10;  A 1.41 1.41 0.0 0 0 395.6212 493.9711&#10;  L 385.3812 493.9890&#10;  A 1.41 1.41 0.0 0 0 383.9737 495.4014&#10;  L 384.0063 514.0814&#10;  A 1.41 1.41 0.0 0 0 385.4188 515.4889&#10;  L 395.6588 515.4710&#10;  A 1.41 1.41 0.0 0 0 397.0663 514.0586&#10;  L 397.0337 495.3786&#10;  Z&#10;  M 425.0824 495.4411&#10;  A 1.43 1.43 0.0 0 0 423.6574 494.0061&#10;  L 414.4575 493.9740&#10;  A 1.43 1.43 0.0 0 0 413.0225 495.3990&#10;  L 412.9576 513.9989&#10;  A 1.43 1.43 0.0 0 0 414.3826 515.4339&#10;  L 423.5825 515.4660&#10;  A 1.43 1.43 0.0 0 0 425.0175 514.0410&#10;  L 425.0824 495.4411&#10;  Z&#10;  M 625.11 507.15&#10;  A 1.10 1.10 0.0 0 0 624.01 506.05&#10;  L 615.09 506.05&#10;  A 1.10 1.10 0.0 0 0 613.99 507.15&#10;  L 613.99 544.99&#10;  A 1.10 1.10 0.0 0 0 615.09 546.09&#10;  L 624.01 546.09&#10;  A 1.10 1.10 0.0 0 0 625.11 544.99&#10;  L 625.11 507.15&#10;  Z"/>
<rect fill="#a6d630" fill-opacity="0.992" x="-53.75" y="-16.27" transform="translate(344.55,113.86) rotate(27.1)" width="107.50" height="32.54" rx="9.76"/>
<path fill="#a6d630" fill-opacity="0.992" d="&#10;  M 360.13 181.19&#10;  A 1.80 1.79 -63.7 0 0 360.91 183.50&#10;  Q 367.53 187.06 374.29 190.46&#10;  Q 455.09 231.02 491.94 249.48&#10;  C 498.26 252.64 505.47 256.71 512.01 259.97&#10;  Q 524.46 266.19 527.89 268.14&#10;  Q 534.02 271.63 536.74 279.32&#10;  A 3.24 3.23 -56.2 0 1 536.93 280.29&#10;  Q 536.96 281.14 537.18 283.98&#10;  C 537.79 292.00 533.32 297.75 526.75 301.50&#10;  A 3.15 2.86 -64.5 0 1 526.02 301.80&#10;  C 521.86 302.95 517.73 303.33 513.36 302.25&#10;  Q 511.21 301.72 505.68 298.43&#10;  Q 437.58 257.89 361.65 213.60&#10;  Q 356.32 210.49 349.00 206.53&#10;  A 1.19 1.17 44.6 0 0 347.85 206.53&#10;  C 346.38 207.36 346.29 208.65 345.63 209.93&#10;  Q 339.76 221.32 337.64 225.12&#10;  C 334.52 230.72 330.68 228.99 325.69 226.35&#10;  Q 287.60 206.20 261.07 192.44&#10;  Q 257.92 190.81 259.51 187.23&#10;  C 261.72 182.26 265.02 176.78 267.25 172.36&#10;  Q 288.67 129.82 291.12 124.86&#10;  Q 293.45 120.14 297.78 121.21&#10;  A 3.22 2.94 -21.1 0 1 298.55 121.51&#10;  Q 300.30 122.47 335.48 140.32&#10;  C 345.73 145.52 354.82 150.84 366.13 156.59&#10;  Q 367.26 157.16 368.60 158.77&#10;  A 1.99 1.95 -68.1 0 1 369.04 159.83&#10;  Q 369.30 162.50 367.19 166.69&#10;  Q 362.02 176.96 360.13 181.19&#10;  Z"/>
<path fill="#a6d630" fill-opacity="0.992" d="&#10;  M 242.76 200.15&#10;  Q 247.41 199.20 250.21 200.34&#10;  C 255.21 202.37 260.39 205.57 264.55 207.65&#10;  C 286.41 218.61 302.66 226.63 318.08 235.33&#10;  Q 320.65 236.77 329.28 241.24&#10;  C 331.13 242.20 334.81 245.29 334.96 247.63&#10;  C 335.17 251.12 334.96 253.54 333.36 257.12&#10;  C 330.42 263.69 328.39 269.14 323.14 271.54&#10;  Q 320.78 272.61 317.69 271.72&#10;  Q 317.03 271.53 312.74 269.27&#10;  Q 281.16 252.64 234.65 228.85&#10;  Q 233.00 228.01 231.45 225.46&#10;  A 2.23 2.23 0.0 0 1 231.14 224.53&#10;  Q 230.66 220.07 232.08 217.06&#10;  Q 235.66 209.49 238.70 203.96&#10;  Q 239.72 202.12 241.82 200.57&#10;  A 2.48 2.37 19.7 0 1 242.76 200.15&#10;  Z"/>
<path fill="#a6d630" fill-opacity="0.992" d="&#10;  M 133.48 389.95&#10;  Q 131.65 390.32 127.51 391.48&#10;  Q 123.59 392.58 121.65 393.37&#10;  Q 110.00 398.06 98.62 405.57&#10;  A 0.94 0.94 0.0 0 1 97.17 404.65&#10;  C 97.49 402.62 97.85 400.20 97.85 397.76&#10;  Q 97.89 339.23 97.89 256.75&#10;  Q 97.89 253.93 99.73 252.24&#10;  Q 116.51 236.85 129.78 228.21&#10;  Q 131.28 227.23 133.81 228.09&#10;  A 2.54 2.41 71.3 0 1 134.55 228.48&#10;  Q 147.18 237.97 159.97 249.72&#10;  A 3.03 3.03 0.0 0 1 160.95 251.95&#10;  L 160.95 284.94&#10;  A 1.67 1.66 -83.4 0 0 162.23 286.56&#10;  Q 173.60 289.27 186.03 292.73&#10;  Q 186.91 292.97 188.28 293.22&#10;  Q 191.29 293.76 191.30 296.73&#10;  Q 191.36 336.02 191.12 378.50&#10;  Q 191.11 380.47 191.45 382.08&#10;  A 2.39 2.39 0.0 0 1 189.11 384.98&#10;  L 181.53 384.98&#10;  A 1.45 1.44 -0.0 0 1 180.08 383.54&#10;  L 180.08 304.06&#10;  A 1.95 1.95 0.0 0 0 178.25 302.11&#10;  C 174.29 301.88 171.56 300.48 167.65 299.87&#10;  Q 165.97 299.61 163.14 298.34&#10;  A 1.56 1.56 0.0 0 0 160.94 299.77&#10;  L 160.94 384.62&#10;  A 2.16 2.16 0.0 0 1 158.91 386.78&#10;  L 151.33 387.22&#10;  A 1.21 1.21 0.0 0 1 150.05 386.01&#10;  L 150.05 261.28&#10;  A 3.10 3.09 19.2 0 0 148.87 258.85&#10;  L 135.59 248.44&#10;  A 0.97 0.97 0.0 0 0 134.02 249.21&#10;  L 134.02 389.29&#10;  A 0.67 0.67 0.0 0 1 133.48 389.95&#10;  Z"/>
<path fill="#a6d630" fill-opacity="0.992" d="&#10;  M 365.68 313.04&#10;  L 375.04 313.04&#10;  A 1.14 0.98 49.4 0 1 375.36 313.09&#10;  Q 378.36 314.02 379.85 317.48&#10;  A 1.58 1.58 0.0 0 1 379.99 318.13&#10;  L 379.99 338.65&#10;  A 1.79 1.78 -28.9 0 1 379.71 339.61&#10;  Q 378.00 342.33 375.32 343.84&#10;  A 1.06 1.04 -60.2 0 1 374.78 343.99&#10;  L 230.22 343.99&#10;  A 1.04 1.00 54.4 0 1 229.85 343.92&#10;  Q 224.89 342.06 224.37 336.39&#10;  Q 223.93 331.61 224.21 321.50&#10;  Q 224.25 320.20 225.28 316.76&#10;  Q 225.94 314.58 229.39 313.22&#10;  A 1.68 1.66 33.0 0 1 229.93 313.11&#10;  L 237.52 313.04&#10;  A 1.72 1.70 -61.4 0 0 238.39 312.78&#10;  Q 240.09 311.69 239.82 309.96&#10;  Q 239.69 309.10 239.73 308.07&#10;  Q 239.99 300.42 240.11 298.22&#10;  A 2.57 2.37 -31.9 0 1 240.38 297.24&#10;  Q 242.76 292.52 247.59 292.45&#10;  Q 266.56 292.18 313.50 292.53&#10;  Q 323.51 292.60 352.98 292.18&#10;  C 357.63 292.11 361.64 292.91 363.77 297.17&#10;  A 0.86 0.67 38.0 0 1 363.83 297.41&#10;  L 364.68 312.10&#10;  A 1.00 1.00 0.0 0 0 365.68 313.04&#10;  Z"/>
<path fill="#a6d630" fill-opacity="0.992" d="&#10;  M 85.77 311.30&#10;  A 1.99 1.99 0.0 0 1 87.61 313.28&#10;  L 87.61 411.82&#10;  A 2.22 2.20 71.8 0 1 86.73 413.59&#10;  Q 79.08 419.37 69.75 425.75&#10;  Q 69.00 426.26 65.04 426.88&#10;  C 62.72 427.24 60.70 428.35 58.38 427.86&#10;  A 0.57 0.56 -84.5 0 1 57.93 427.30&#10;  Q 58.10 380.11 57.99 328.00&#10;  Q 57.98 325.83 59.93 324.92&#10;  Q 70.66 319.94 80.20 313.96&#10;  C 81.92 312.88 83.59 311.14 85.77 311.30&#10;  Z"/>
<path fill="#a6d630" fill-opacity="0.992" d="&#10;  M 751.00 338.73&#10;  L 751.00 389.72&#10;  Q 750.56 393.03 749.61 404.51&#10;  Q 747.58 428.95 739.90 455.63&#10;  C 739.03 458.65 737.78 461.23 737.69 464.33&#10;  A 0.51 0.51 0.0 0 1 736.86 464.71&#10;  Q 736.40 464.33 736.41 463.62&#10;  Q 737.25 408.67 736.76 364.52&#10;  Q 736.76 364.16 737.15 357.75&#10;  A 2.58 2.50 61.6 0 1 737.42 356.79&#10;  Q 743.54 344.69 747.55 333.51&#10;  C 748.08 332.04 747.94 330.24 748.73 329.39&#10;  A 0.69 0.69 0.0 0 1 749.92 329.78&#10;  L 751.00 338.73&#10;  Z"/>
<path fill="#a6d630" fill-opacity="0.992" d="&#10;  M 173.36 515.85&#10;  C 176.62 514.29 176.22 513.13 175.31 509.59&#10;  Q 173.12 501.12 174.54 492.57&#10;  C 175.62 486.10 178.23 473.84 187.47 478.16&#10;  Q 189.33 479.03 191.63 483.11&#10;  C 193.69 486.76 194.80 491.52 194.94 496.15&#10;  Q 195.21 505.48 194.64 509.14&#10;  Q 193.52 516.45 189.49 522.78&#10;  Q 185.85 528.50 179.32 529.54&#10;  C 170.96 530.87 152.84 529.96 149.70 519.40&#10;  Q 149.31 518.09 148.40 517.32&#10;  A 1.89 1.89 0.0 0 0 147.11 516.88&#10;  Q 141.75 517.12 137.01 516.58&#10;  C 129.52 515.72 122.92 516.07 115.33 515.91&#10;  C 113.64 515.88 112.67 515.59 111.28 515.27&#10;  A 12.12 11.97 51.1 0 0 108.61 514.97&#10;  C 101.22 514.93 94.48 515.22 86.69 514.21&#10;  Q 83.12 513.74 78.00 514.07&#10;  A 1.54 1.48 21.3 0 0 77.13 514.43&#10;  Q 71.90 519.05 70.16 519.61&#10;  C 63.53 521.74 57.90 521.53 50.60 521.12&#10;  Q 45.88 520.85 43.61 520.06&#10;  Q 40.67 519.04 37.25 517.12&#10;  Q 34.07 515.33 31.26 510.78&#10;  A 1.26 1.24 -10.6 0 0 30.43 510.22&#10;  Q 26.89 509.60 20.61 507.43&#10;  Q 13.46 504.94 13.22 497.00&#10;  Q 12.84 484.09 13.21 479.03&#10;  Q 13.30 477.76 14.68 477.15&#10;  Q 15.48 476.80 17.24 477.45&#10;  Q 19.40 478.25 28.96 480.82&#10;  C 30.32 481.18 31.22 481.13 32.86 481.82&#10;  Q 34.65 482.57 35.75 480.68&#10;  A 1.61 1.52 62.6 0 0 35.97 479.91&#10;  C 36.13 472.93 37.09 466.84 30.61 464.12&#10;  A 0.05 0.03 -13.3 0 0 30.58 464.11&#10;  L 20.26 463.24&#10;  A 1.44 1.44 0.0 0 1 19.32 460.83&#10;  Q 20.30 459.75 21.24 459.04&#10;  Q 40.30 444.55 64.50 439.24&#10;  Q 71.23 437.77 72.20 437.70&#10;  A 2.06 2.04 -65.2 0 0 73.30 437.29&#10;  C 74.58 436.32 75.95 435.96 77.11 435.10&#10;  C 82.40 431.16 86.99 428.15 91.85 424.15&#10;  C 100.63 416.93 110.32 409.55 120.38 404.40&#10;  C 126.67 401.19 132.05 399.94 138.61 398.59&#10;  C 142.12 397.87 145.35 398.27 148.84 397.32&#10;  A 6.02 5.78 36.2 0 1 150.25 397.13&#10;  Q 171.38 397.01 200.08 397.03&#10;  Q 204.60 397.03 209.17 397.67&#10;  Q 213.10 398.23 218.57 398.12&#10;  A 10.52 10.21 -39.8 0 1 220.55 398.27&#10;  C 221.96 398.51 223.44 399.11 225.11 399.04&#10;  Q 227.90 398.91 231.23 399.51&#10;  Q 239.58 401.00 241.67 401.57&#10;  Q 255.59 405.34 265.01 414.02&#10;  Q 271.37 419.89 279.17 427.58&#10;  Q 285.20 433.54 293.03 437.92&#10;  Q 295.14 439.10 297.30 442.44&#10;  C 303.10 451.48 303.07 459.48 303.00 470.38&#10;  Q 302.96 475.59 302.02 479.17&#10;  C 301.10 482.64 299.79 488.94 297.52 490.46&#10;  A 1.02 1.02 0.0 0 1 295.94 489.63&#10;  Q 295.76 481.59 293.38 473.41&#10;  C 292.37 469.92 287.71 463.42 283.24 465.24&#10;  A 2.79 2.69 32.0 0 1 282.21 465.46&#10;  C 276.69 465.59 275.08 468.40 273.25 473.25&#10;  Q 269.75 482.56 270.09 493.01&#10;  Q 270.30 499.67 274.20 503.82&#10;  A 1.06 1.06 0.0 0 0 276.03 503.09&#10;  Q 275.99 496.52 276.00 486.39&#10;  Q 276.00 482.70 276.62 480.19&#10;  C 277.76 475.55 279.24 469.28 285.17 472.55&#10;  C 288.01 474.11 289.82 482.26 289.97 485.33&#10;  Q 290.44 494.96 289.94 502.61&#10;  A 3.76 3.63 57.0 0 1 289.75 503.58&#10;  Q 288.37 507.78 287.90 508.69&#10;  Q 285.96 512.50 282.17 514.50&#10;  Q 279.13 516.12 274.08 516.10&#10;  Q 269.94 516.08 263.25 515.94&#10;  A 2.19 2.16 56.7 0 1 262.46 515.77&#10;  L 257.62 513.72&#10;  A 1.65 1.63 76.4 0 1 257.25 513.49&#10;  Q 254.65 511.21 253.77 507.90&#10;  A 1.25 1.24 85.8 0 0 252.72 506.99&#10;  Q 249.48 506.60 246.73 507.64&#10;  A 4.77 4.65 -54.4 0 1 245.00 507.95&#10;  Q 241.69 507.92 239.82 508.28&#10;  Q 235.66 509.07 234.65 508.97&#10;  Q 232.83 508.78 231.21 509.45&#10;  C 228.83 510.43 224.86 509.83 222.35 510.42&#10;  C 219.82 511.02 217.34 510.53 215.35 511.35&#10;  Q 214.14 511.85 212.60 511.91&#10;  Q 208.15 512.06 203.22 512.89&#10;  Q 201.54 513.18 200.84 512.43&#10;  Q 200.20 511.76 200.64 510.11&#10;  Q 202.64 502.53 201.97 495.25&#10;  Q 201.58 491.10 200.05 483.93&#10;  Q 199.72 482.38 198.93 480.44&#10;  Q 197.81 477.72 197.45 477.06&#10;  C 194.05 470.77 188.47 466.37 181.39 468.67&#10;  Q 175.43 470.61 172.61 475.43&#10;  Q 171.22 477.81 169.32 484.65&#10;  Q 168.20 488.70 166.92 494.15&#10;  C 165.42 500.56 165.97 507.06 168.47 512.50&#10;  Q 169.51 514.76 172.25 515.89&#10;  A 1.36 1.34 -46.6 0 0 173.36 515.85&#10;  Z&#10;  M 92.60 438.74&#10;  C 97.11 439.58 102.39 438.31 107.22 438.20&#10;  Q 111.95 438.10 135.47 438.00&#10;  C 140.89 437.97 146.00 437.12 151.43 437.09&#10;  Q 164.02 437.03 177.15 437.04&#10;  A 3.38 3.34 -55.3 0 0 178.37 436.81&#10;  C 182.71 435.14 186.50 430.07 189.10 426.10&#10;  Q 196.07 415.47 198.21 411.95&#10;  Q 198.68 411.18 198.85 410.44&#10;  A 0.97 0.96 -84.4 0 0 197.89 409.26&#10;  Q 170.24 410.02 143.25 410.02&#10;  Q 141.19 410.02 138.70 410.66&#10;  C 125.07 414.16 110.72 422.51 100.30 430.59&#10;  Q 95.87 434.03 92.15 436.55&#10;  A 1.21 1.21 0.0 0 0 92.60 438.74&#10;  Z&#10;  M 237.07 434.38&#10;  Q 237.25 430.40 236.32 426.59&#10;  A 8.50 8.32 38.7 0 1 236.10 424.77&#10;  C 236.07 418.51 236.85 412.84 231.77 410.47&#10;  Q 230.48 409.87 224.66 409.90&#10;  Q 219.03 409.94 214.04 412.13&#10;  A 4.20 3.82 -72.2 0 0 213.19 412.62&#10;  Q 209.58 415.29 207.16 418.41&#10;  Q 202.66 424.20 198.01 432.28&#10;  Q 197.98 432.32 196.35 434.58&#10;  A 1.07 1.07 0.0 0 0 197.24 436.28&#10;  Q 209.17 436.01 229.25 436.02&#10;  Q 234.02 436.02 236.48 435.17&#10;  A 0.88 0.86 -9.0 0 0 237.07 434.38&#10;  Z&#10;  M 245.42 413.11&#10;  A 0.87 0.87 0.0 0 0 244.19 413.80&#10;  Q 243.56 420.08 244.52 424.91&#10;  C 245.15 428.03 244.97 431.16 244.96 434.40&#10;  A 0.65 0.65 0.0 0 0 245.61 435.05&#10;  Q 252.76 435.13 265.85 435.00&#10;  Q 267.17 434.98 267.97 433.61&#10;  Q 268.56 432.59 267.05 431.91&#10;  A 2.26 2.24 -5.4 0 1 266.15 431.17&#10;  Q 258.86 420.96 248.02 414.52&#10;  Q 246.54 413.64 245.42 413.11&#10;  Z&#10;  M 113.44 477.95&#10;  Q 111.55 479.53 111.88 481.73&#10;  A 1.50 1.49 87.4 0 0 113.27 483.01&#10;  Q 116.00 483.19 118.49 482.65&#10;  C 123.47 481.57 129.17 482.64 133.34 481.45&#10;  C 136.45 480.56 140.66 481.45 144.31 480.25&#10;  A 2.69 2.44 32.5 0 1 145.06 480.12&#10;  L 151.17 479.96&#10;  A 1.09 1.04 30.4 0 0 151.55 479.87&#10;  C 156.57 477.64 161.28 471.68 159.96 465.81&#10;  A 2.25 2.23 4.3 0 0 158.56 464.20&#10;  Q 153.36 462.24 147.49 463.01&#10;  Q 135.06 464.65 127.86 466.65&#10;  Q 126.18 467.12 122.44 468.47&#10;  A 4.03 4.01 12.2 0 0 120.94 469.43&#10;  L 114.43 475.94&#10;  A 1.52 1.50 73.8 0 0 114.00 476.74&#10;  Q 113.95 476.98 113.93 477.09&#10;  A 1.46 1.45 74.9 0 1 113.44 477.95&#10;  Z&#10;  M 100.27 473.70&#10;  C 99.49 473.02 97.07 472.15 95.54 472.06&#10;  Q 81.97 471.24 79.75 471.26&#10;  Q 67.73 471.33 54.25 471.10&#10;  A 1.66 1.12 29.4 0 0 54.00 471.12&#10;  L 47.80 472.22&#10;  A 1.08 1.07 -67.0 0 0 47.36 472.40&#10;  Q 43.77 474.94 44.14 478.54&#10;  C 44.53 482.44 47.14 483.15 50.28 484.75&#10;  A 2.89 2.82 57.0 0 0 51.65 485.06&#10;  Q 53.18 485.02 54.82 485.75&#10;  A 2.78 2.73 57.4 0 0 55.82 485.98&#10;  C 60.49 486.15 64.50 486.00 70.00 486.65&#10;  Q 77.14 487.49 87.34 486.89&#10;  A 2.65 2.58 31.7 0 0 88.24 486.69&#10;  Q 89.46 486.21 91.71 486.02&#10;  A 2.78 2.68 28.3 0 0 92.78 485.72&#10;  Q 98.89 482.66 100.92 477.26&#10;  A 3.46 2.83 -61.1 0 0 100.27 473.70&#10;  Z"/>
<path fill="#a6d630" fill-opacity="0.992" d="&#10;  M 278.51 468.93&#10;  C 279.38 466.97 281.59 465.30 283.73 466.10&#10;  A 0.69 0.69 0.0 0 1 283.54 467.43&#10;  Q 281.44 467.59 278.88 469.24&#10;  A 0.25 0.25 0.0 0 1 278.51 468.93&#10;  Z"/>
<path fill="#a6d630" fill-opacity="0.992" d="&#10;  M 394.02 841.00&#10;  L 384.04 841.00&#10;  C 381.17 840.30 378.11 840.07 375.52 839.18&#10;  Q 352.67 831.31 346.01 808.08&#10;  Q 345.23 805.37 345.03 803.63&#10;  Q 344.84 801.92 344.27 799.87&#10;  A 5.39 5.07 -54.6 0 1 344.07 798.43&#10;  L 344.07 787.31&#10;  A 0.65 0.34 -54.5 0 1 344.09 787.16&#10;  C 344.95 783.59 345.65 779.21 347.07 775.50&#10;  C 352.91 760.27 365.01 750.28 381.01 747.41&#10;  C 385.47 746.61 390.38 746.65 395.59 747.01&#10;  Q 398.96 747.24 400.68 747.65&#10;  Q 407.72 749.33 412.98 752.08&#10;  Q 422.03 756.82 427.80 765.17&#10;  Q 434.22 774.49 435.85 786.80&#10;  Q 436.18 789.27 436.04 795.92&#10;  Q 435.93 801.00 435.06 804.94&#10;  Q 429.96 827.79 408.44 837.66&#10;  A 3.19 3.07 -62.1 0 1 407.80 837.87&#10;  Q 405.29 838.37 403.09 839.45&#10;  A 3.61 3.53 27.3 0 1 402.08 839.76&#10;  L 394.02 841.00&#10;  Z&#10;  M 364.15 793.46&#10;  Q 364.03 800.29 366.17 806.21&#10;  Q 370.77 818.93 384.51 822.63&#10;  C 386.06 823.05 388.11 822.99 389.62 823.02&#10;  C 391.13 823.05 393.17 823.18 394.74 822.81&#10;  Q 408.59 819.59 413.64 807.04&#10;  Q 415.99 801.21 416.11 794.37&#10;  Q 416.23 787.54 414.09 781.62&#10;  Q 409.49 768.90 395.75 765.20&#10;  C 394.19 764.78 392.15 764.84 390.64 764.81&#10;  C 389.13 764.79 387.09 764.66 385.52 765.02&#10;  Q 371.66 768.24 366.61 780.79&#10;  Q 364.27 786.63 364.15 793.46&#10;  Z"/>
<path fill="#a6d630" fill-opacity="0.992" d="&#10;  M 292.86 841.00&#10;  L 285.03 841.00&#10;  L 277.81 839.78&#10;  A 1.54 1.40 58.9 0 1 277.44 839.67&#10;  C 275.15 838.66 272.67 838.12 270.49 837.08&#10;  Q 250.60 827.55 245.42 805.88&#10;  Q 245.04 804.32 245.01 803.00&#10;  C 244.97 801.75 244.40 800.71 244.22 799.22&#10;  Q 243.21 790.46 245.99 780.01&#10;  Q 248.47 770.71 253.01 764.79&#10;  Q 263.14 751.55 278.86 747.99&#10;  Q 283.56 746.93 288.28 746.89&#10;  Q 294.13 746.85 297.81 747.22&#10;  Q 302.35 747.67 308.53 750.00&#10;  Q 321.54 754.91 329.11 767.68&#10;  C 331.88 772.35 331.98 777.86 324.90 777.86&#10;  Q 318.97 777.85 314.65 777.84&#10;  A 2.64 2.62 -30.7 0 1 313.41 777.53&#10;  Q 311.80 776.69 310.13 773.87&#10;  Q 307.82 769.99 301.90 766.61&#10;  A 4.38 4.32 -26.0 0 0 300.24 766.05&#10;  Q 298.99 765.88 297.70 765.13&#10;  A 2.16 2.14 -29.8 0 0 296.62 764.84&#10;  L 285.99 764.84&#10;  A 3.01 2.96 32.5 0 0 284.77 765.10&#10;  Q 283.04 765.88 282.10 765.96&#10;  A 2.80 2.77 -59.3 0 0 281.18 766.20&#10;  Q 268.79 771.80 265.43 784.62&#10;  Q 262.59 795.44 266.03 805.66&#10;  Q 270.61 819.31 284.34 822.94&#10;  A 4.57 4.41 52.3 0 0 285.23 823.07&#10;  Q 294.06 823.29 295.50 823.03&#10;  Q 300.36 822.13 304.86 819.16&#10;  Q 311.53 814.76 313.16 807.16&#10;  A 1.05 1.05 0.0 0 0 312.13 805.89&#10;  L 296.09 805.89&#10;  A 1.38 1.29 57.4 0 1 295.46 805.73&#10;  Q 292.94 804.34 292.68 802.77&#10;  Q 291.73 797.05 292.40 792.67&#10;  Q 292.76 790.40 294.99 789.30&#10;  A 2.09 2.01 -57.0 0 1 295.89 789.09&#10;  L 330.54 789.09&#10;  A 2.41 2.41 0.0 0 1 332.95 791.50&#10;  C 332.96 797.55 333.50 804.06 332.03 809.70&#10;  Q 326.93 829.17 307.82 837.73&#10;  A 2.67 2.53 24.7 0 1 307.32 837.90&#10;  Q 304.80 838.43 302.55 839.53&#10;  A 2.52 2.35 -59.5 0 1 301.91 839.72&#10;  L 292.86 841.00&#10;  Z"/>
<rect fill="#a6d630" fill-opacity="0.992" x="76.08" y="748.03" width="19.88" height="91.28" rx="3.11"/>
<path fill="#a6d630" fill-opacity="0.992" d="&#10;  M 188.68 837.31&#10;  Q 187.72 839.50 185.70 839.48&#10;  Q 180.66 839.45 171.56 839.56&#10;  Q 168.52 839.60 166.80 836.43&#10;  Q 161.21 826.13 151.94 809.35&#10;  A 3.35 3.33 -14.3 0 0 149.01 807.62&#10;  L 137.30 807.62&#10;  A 1.33 1.33 0.0 0 0 135.97 808.95&#10;  L 135.97 836.37&#10;  A 2.74 2.74 0.0 0 1 133.26 839.11&#10;  Q 126.92 839.19 119.82 839.68&#10;  Q 117.62 839.83 116.29 837.60&#10;  A 1.54 1.49 -61.6 0 1 116.07 836.81&#10;  L 116.07 750.23&#10;  A 2.09 2.08 -0.1 0 1 118.15 748.15&#10;  Q 142.05 748.06 156.14 748.07&#10;  Q 163.63 748.07 168.68 749.75&#10;  Q 180.08 753.55 185.09 765.06&#10;  Q 186.97 769.37 187.07 774.40&#10;  Q 187.21 781.33 186.86 784.00&#10;  Q 185.77 792.38 178.99 799.41&#10;  Q 177.14 801.32 174.83 802.26&#10;  Q 174.72 802.30 170.35 804.65&#10;  A 0.47 0.47 0.0 0 0 170.19 805.35&#10;  Q 172.37 808.28 175.08 812.89&#10;  Q 175.13 812.98 188.63 836.43&#10;  A 0.98 0.95 -49.2 0 1 188.68 837.31&#10;  Z&#10;  M 136.03 767.18&#10;  L 135.91 788.56&#10;  A 1.37 1.37 0.0 0 0 137.28 789.93&#10;  L 154.84 790.02&#10;  A 13.19 11.88 0.3 0 0 168.09 778.21&#10;  L 168.09 777.85&#10;  A 13.19 11.88 0.3 0 0 154.96 765.91&#10;  L 137.40 765.81&#10;  A 1.37 1.37 0.0 0 0 136.03 767.18&#10;  Z"/>
<rect fill="#a6d630" fill-opacity="0.992" x="208.16" y="748.02" width="19.80" height="91.24" rx="3.20"/>
<path fill="#a6d630" fill-opacity="0.992" d="&#10;  M 514.14 748.02&#10;  A 0.92 0.92 0.0 0 1 515.04 749.15&#10;  Q 514.55 751.25 512.79 754.52&#10;  Q 498.70 780.63 486.26 804.21&#10;  A 2.29 1.91 -28.6 0 0 486.09 804.64&#10;  L 485.29 807.30&#10;  A 1.96 1.92 -37.3 0 0 485.21 807.85&#10;  L 485.13 836.70&#10;  A 1.42 1.20 -40.3 0 1 485.06 837.12&#10;  Q 484.04 839.73 481.00 839.46&#10;  Q 478.41 839.24 469.50 839.30&#10;  Q 467.42 839.31 466.32 837.47&#10;  A 1.46 1.42 30.3 0 1 466.12 836.74&#10;  L 466.12 804.79&#10;  A 1.50 1.49 -59.7 0 0 465.93 804.06&#10;  Q 442.37 759.96 437.64 751.42&#10;  Q 437.17 750.57 437.13 749.90&#10;  A 1.66 1.63 87.7 0 1 438.74 748.13&#10;  Q 443.43 748.06 455.25 748.05&#10;  C 457.44 748.05 457.66 749.15 458.75 750.93&#10;  Q 459.21 751.67 459.99 753.28&#10;  Q 464.96 763.55 474.42 781.08&#10;  C 474.96 782.08 475.56 783.91 476.84 783.87&#10;  A 0.64 0.64 0.0 0 0 477.40 783.51&#10;  L 494.12 749.77&#10;  A 3.16 3.13 -76.7 0 1 496.93 748.02&#10;  L 514.14 748.02&#10;  Z"/>
<path fill="#a6d630" fill-opacity="0.992" d="&#10;  M 589.06 823.36&#10;  Q 589.10 823.43 589.46 825.26&#10;  Q 589.75 826.80 589.55 836.50&#10;  Q 589.53 837.74 587.21 839.30&#10;  A 1.65 1.64 28.4 0 1 586.26 839.58&#10;  Q 568.25 839.07 531.19 839.53&#10;  C 528.05 839.57 527.59 837.25 527.61 834.43&#10;  Q 527.87 799.73 527.50 754.26&#10;  Q 527.48 751.56 528.20 749.16&#10;  A 1.52 1.52 0.0 0 1 529.66 748.07&#10;  L 587.48 748.07&#10;  A 1.42 1.42 0.0 0 1 588.90 749.49&#10;  L 588.90 763.94&#10;  A 2.03 2.03 0.0 0 1 586.87 765.97&#10;  L 549.03 765.97&#10;  A 1.86 1.86 0.0 0 0 547.17 767.83&#10;  L 547.17 782.78&#10;  A 1.36 1.36 0.0 0 0 548.52 784.14&#10;  L 577.93 784.25&#10;  A 1.18 1.07 56.4 0 1 578.45 784.38&#10;  Q 580.64 785.54 580.77 788.28&#10;  Q 581.10 795.59 580.74 798.47&#10;  C 580.41 801.09 577.54 801.91 574.86 801.85&#10;  Q 572.86 801.81 548.72 801.94&#10;  A 1.56 1.56 0.0 0 0 547.17 803.50&#10;  L 547.17 819.65&#10;  A 1.44 1.44 0.0 0 0 548.61 821.09&#10;  L 585.16 821.09&#10;  A 4.49 4.49 0.0 0 1 589.06 823.36&#10;  Z"/>
<path fill="#a6d630" fill-opacity="0.992" d="&#10;  M 625.22 783.47&#10;  A 0.72 0.71 25.5 0 0 623.95 783.92&#10;  L 623.95 836.42&#10;  A 2.64 2.63 89.4 0 1 621.37 839.06&#10;  Q 617.12 839.14 608.76 839.33&#10;  Q 605.91 839.39 605.11 836.54&#10;  A 1.08 0.94 40.9 0 1 605.07 836.26&#10;  L 605.07 750.21&#10;  A 2.14 2.14 0.0 0 1 607.21 748.07&#10;  L 622.50 748.07&#10;  A 3.62 3.62 0.0 0 1 625.53 749.71&#10;  Q 642.73 775.95 657.92 799.82&#10;  Q 658.90 801.35 659.41 801.91&#10;  C 660.25 802.84 659.78 803.75 661.11 804.42&#10;  A 0.62 0.62 0.0 0 0 662.01 803.86&#10;  L 662.01 750.02&#10;  A 1.93 1.93 0.0 0 1 663.94 748.09&#10;  L 678.76 748.09&#10;  A 1.12 1.12 0.0 0 1 679.86 748.98&#10;  C 680.09 750.11 680.45 751.80 680.44 753.18&#10;  Q 680.34 806.91 680.48 836.15&#10;  A 2.63 2.63 0.0 0 1 677.90 838.79&#10;  Q 672.20 838.89 664.00 838.93&#10;  Q 662.41 838.93 660.82 837.98&#10;  A 1.59 1.56 -0.6 0 1 660.30 837.48&#10;  L 628.49 788.76&#10;  A 0.95 0.50 88.6 0 1 628.40 788.60&#10;  Q 627.44 786.19 625.22 783.47&#10;  Z"/>
</svg>